<svg xmlns="http://www.w3.org/2000/svg" viewBox="0 0 1024 1024" fill="none">
  <defs>
    <linearGradient id="logoGradient" x1="0%" y1="0%" x2="100%" y2="100%">
      <stop offset="0%" style="stop-color:#9fdacb;stop-opacity:1" />
      <stop offset="50%" style="stop-color:#ffd3b6;stop-opacity:1" />
      <stop offset="100%" style="stop-color:#ff7a8c;stop-opacity:1" />
    </linearGradient>
  </defs>
  <g transform="translate(154, 180)">
    <path d="M397.56,0c-26.88,0-52.62,5.26-76.56,15.62c-23.22,10.05-44.07,24.43-62.01,42.75L117.12,200.24C98.79,218.19,84.41,239.03,74.36,262.25c-10.36,23.95-15.62,49.69-15.62,76.56s5.26,52.62,15.62,76.56c10.05,23.22,24.43,44.07,42.75,62.01l141.87,141.87c17.94,18.32,38.79,32.7,62.01,42.75c23.95,10.36,49.69,15.62,76.56,15.62s52.62-5.26,76.56-15.62c23.22-10.05,44.07-24.43,62.01-42.75l141.87-141.87c18.32-17.94,32.7-38.79,42.75-62.01c10.36-23.95,15.62-49.69,15.62-76.56s-5.26-52.62-15.62-76.56c-10.05-23.22-24.43-44.07-42.75-62.01L535.13,58.38C517.19,40.05,496.34,25.67,473.12,15.62C449.18,5.26,423.44,0,397.56,0z M397.56,74.74c18.32,0,35.87,3.58,52.17,10.65c15.81,6.86,30.02,16.67,42.25,29.17l141.87,141.87c12.5,12.23,22.31,26.44,29.17,42.25c7.07,16.3,10.65,33.85,10.65,52.17s-3.58,35.87-10.65,52.17c-6.86,15.81-16.67,30.02-29.17,42.25L492.98,586.14c-12.23,12.5-26.44,22.31-42.25,29.17c-16.3,7.07-33.85,10.65-52.17,10.65s-35.87-3.58-52.17-10.65c-15.81-6.86-30.02-16.67-42.25-29.17L162.27,444.27c-12.5-12.23-22.31-26.44-29.17-42.25c-7.07-16.3-10.65-33.85-10.65-52.17s3.58-35.87,10.65-52.17c6.86-15.81,16.67-30.02,29.17-42.25l141.87-141.87c12.23-12.5,26.44-22.31,42.25-29.17C362.69,78.32,380.24,74.74,397.56,74.74z" 
          fill="url(#logoGradient)"/>
  </g>
</svg>
