<svg xmlns="http://www.w3.org/2000/svg" viewBox="0 0 512 512" fill="none">
  <defs>
    <linearGradient id="faviconGradient" x1="0%" y1="0%" x2="100%" y2="100%">
      <stop offset="0%" style="stop-color:#9fdacb;stop-opacity:1" />
      <stop offset="50%" style="stop-color:#ffd3b6;stop-opacity:1" />
      <stop offset="100%" style="stop-color:#ff7a8c;stop-opacity:1" />
    </linearGradient>
  </defs>
  <path d="M256,32c-17.92,0-35.08,3.51-51.04,10.41c-15.48,6.7-29.38,16.29-41.34,28.5L83.78,150.75c-12.21,11.96-21.8,25.86-28.5,41.34c-6.9,15.96-10.41,33.12-10.41,51.04s3.51,35.08,10.41,51.04c6.7,15.48,16.29,29.38,28.5,41.34l94.58,94.58c11.96,12.21,25.86,21.8,41.34,28.5c15.96,6.9,33.12,10.41,51.04,10.41s35.08-3.51,51.04-10.41c15.48-6.7,29.38-16.29,41.34-28.5l94.58-94.58c12.21-11.96,21.8-25.86,28.5-41.34c6.9-15.96,10.41-33.12,10.41-51.04s-3.51-35.08-10.41-51.04c-6.7-15.48-16.29-29.38-28.5-41.34L348.38,70.92c-11.96-12.21-25.86-21.8-41.34-28.5C291.08,35.51,273.92,32,256,32z M256,82c12.21,0,23.91,2.39,34.78,7.1c10.54,4.57,20.01,11.11,28.17,19.44l94.58,94.58c8.33,8.15,14.87,17.63,19.44,28.17c4.71,10.87,7.1,22.57,7.1,34.78s-2.39,23.91-7.1,34.78c-4.57,10.54-11.11,20.01-19.44,28.17l-94.58,94.58c-8.15,8.33-17.63,14.87-28.17,19.44c-10.87,4.71-22.57,7.1-34.78,7.1s-23.91-2.39-34.78-7.1c-10.54-4.57-20.01-11.11-28.17-19.44l-94.58-94.58c-8.33-8.15-14.87-17.63-19.44-28.17c-4.71-10.87-7.1-22.57-7.1-34.78s2.39-23.91,7.1-34.78c4.57-10.54,11.11-20.01,19.44-28.17l94.58-94.58c8.15-8.33,17.63-14.87,28.17-19.44C232.09,84.39,243.79,82,256,82z" 
        fill="url(#faviconGradient)"/>
</svg>
